<svg xmlns="http://www.w3.org/2000/svg" xmlns:xlink="http://www.w3.org/1999/xlink" viewBox="0 0 584 298"><defs><style>.a{filter:url(#a);}.b{fill:#fff;}</style><filter id="a" x="-15.2" y="-26.7" width="130.3" height="159.4" name="a"><feOffset result="shadowOffsetOuter1" dy="9" in="SourceAlpha"/><feGaussianBlur result="shadowBlurOuter1" stdDeviation="28" in="shadowOffsetOuter1"/></filter></defs><title>cloudmini</title><g class="a"><path d="M8,0H576a8,8,0,0,1,8,8V276a8,8,0,0,1-8,8H55.8L31,298V284H8a8,8,0,0,1-8-8V8A8,8,0,0,1,8,0Z"/></g><path class="b" d="M8,0H576a8,8,0,0,1,8,8V276a8,8,0,0,1-8,8H55.8L31,298V284H8a8,8,0,0,1-8-8V8A8,8,0,0,1,8,0Z"/></svg>