<svg xmlns="http://www.w3.org/2000/svg" xmlns:xlink="http://www.w3.org/1999/xlink" width="59" height="22" viewBox="0 0 59 22">
    <defs>
        <path id="a" d="M0 .054h24.167v17.523H0z"/>
        <path id="c" d="M.125.151h54.167v18.87H.125z"/>
    </defs>
    <g fill="none" fill-rule="evenodd">
        <g transform="translate(0 4.056)">
            <mask id="b" fill="#fff">
                <use xlink:href="#a"/>
            </mask>
            <path fill="#C1C6CE" d="M22.506 14.436H7.713c-.362 0-.714.123-1.003.35l-3.556 2.791.152-1.194c.132-1.031-.642-1.947-1.646-1.947-.917 0-1.66-.77-1.66-1.721V1.775C0 .825.743.055 1.66.055h20.846c.917 0 1.661.77 1.661 1.72v10.94c0 .95-.744 1.72-1.66 1.72" mask="url(#b)"/>
        </g>
        <g transform="translate(4.23)">
            <mask id="d" fill="#fff">
                <use xlink:href="#c"/>
            </mask>
            <path fill="#C42A47" d="M52.421 16.022c-1.209 0-2.1 1.206-1.819 2.46l.12.539-3.542-2.64a1.79 1.79 0 0 0-1.07-.359H1.995c-1.033 0-1.87-.894-1.87-1.996V2.147c0-1.102.837-1.996 1.87-1.996H52.42c1.033 0 1.87.894 1.87 1.996v11.879c0 1.102-.837 1.996-1.87 1.996" mask="url(#d)"/>
        </g>
        <path fill="#FFF" d="M14.501 8.965l-.65-2.668h-.066l-.689 2.668h1.405zm3.724 3.88H15.68l-.609-1.831h-2.506l-.582 1.83H9.438l3.273-9.126h2.161l3.353 9.127zM21.903 9.198v3.647h-2.376V3.718h2.256l2.27 3.893.54 1.242.058-.997V3.718h2.362v9.127H24.61l-2.123-3.597-.58-1.229zM30.187 9.978c.943 1.119 2.882.996 2.95.007.025-.52-.837-.819-1.606-.924-1.51-.233-2.891-1.169-2.891-2.925 0-1.807 1.672-2.756 3.395-2.756 1.14 0 2.03.203 2.998 1.36l-1.551 1.17c-.982-1.027-2.454-.879-2.494.188.027.442.517.702 1.246.858 1.67.298 3.341.87 3.236 3.133-.08 1.78-1.99 2.756-3.714 2.756-1.127 0-2.191-.384-3.067-1.488l1.498-1.379zM42.642 3.718h2.596l-3.448 9.127h-2.217l-3.448-9.127h2.596l1.5 4.46.433 1.823h.04l.433-1.81zM47.946 9.686c0 .676.771 1.001 1.53 1.001.758 0 1.517-.338 1.517-1V6.54c0-.715-.785-1.04-1.557-1.04-.746 0-1.49.363-1.49 1.04v3.146zM45.563 6.54c0-2.119 1.944-3.16 3.9-3.16s3.911 1.054 3.911 3.16v3.146c0 2.106-1.942 3.159-3.898 3.159-1.956 0-3.913-1.053-3.913-3.159V6.54z"/>
    </g>
</svg>
