<svg xmlns="http://www.w3.org/2000/svg" xmlns:xlink="http://www.w3.org/1999/xlink" width="1003" height="210" viewBox="0 0 1003 210">
    <defs>
        <path id="a" d="M116.39 124.119l-14.945-59.043h-1.509l-15.84 59.043h32.295zM202 210h-58.508l-13.995-40.522H71.884L58.502 210H0L75.238 8h49.678L202 210zm84.631-80.726V210H233V8h50.941l51.246 86.168 12.182 27.476 1.304-22.06V8H402v202h-54.234l-47.942-79.603-13.095-27.202-.098 26.08zm187.466 17.128c21.37 24.808 65.356 22.078 66.878.147.578-11.555-18.972-18.166-36.4-20.494C470.3 120.872 439 100.107 439 61.15 439 21.053 476.921 0 515.993 0c25.865 0 46.047 4.493 67.996 30.175l-35.184 25.948c-22.254-22.768-55.65-19.488-56.555 4.18.606 9.812 11.72 15.581 28.264 19.044 37.889 6.611 75.772 19.306 73.378 69.508-1.794 39.512-45.12 61.145-84.219 61.145-25.559 0-49.695-8.505-69.55-33.02l33.974-30.578zM759.748 8H819l-78.691 202h-50.624L611 8h59.252l34.24 98.721 9.876 40.33h.934l9.87-40.04L759.749 8zm120.245 131.916c0 14.996 17.475 22.214 34.676 22.214 17.164 0 34.365-7.505 34.365-22.214v-69.8c0-15.87-17.781-23.088-35.278-23.088-16.895 0-33.763 8.065-33.763 23.087v69.801zM826 70.116C826 23.092 870.042 0 914.363 0S1003 23.386 1003 70.115V139.916c0 46.735-44.015 70.084-88.33 70.084-44.327 0-88.67-23.349-88.67-70.084V70.115z"/>
    </defs>
    <use fill="#F0F3F7" fill-rule="evenodd" opacity=".506" xlink:href="#a"/>
</svg>
