<svg xmlns="http://www.w3.org/2000/svg" width="657" height="691" viewBox="0 0 657 691">
    <path fill="#2B2B2B" fill-rule="evenodd" d="M.664 249.68L156.73 54.24H4.56V.715h230.918v50.654L77.363 249.68H235.89V303H.664v-53.32zM297.134 303V.715h62.55v115.254h118.125V.715h62.753V303H477.81V168.059H359.684V303h-62.55zm359.553 0h-62.753V.715h62.754V303zM60.726 589.69c1.914 13.808 5.673 24.13 11.279 30.966 10.254 12.442 27.822 18.662 52.705 18.662 14.902 0 27.002-1.64 36.299-4.922 17.637-6.289 26.455-17.978 26.455-35.068 0-9.98-4.375-17.705-13.125-23.174-8.75-5.332-22.49-10.049-41.22-14.15l-31.993-7.178c-31.445-7.11-53.184-14.834-65.215-23.174-20.371-13.945-30.556-35.751-30.556-65.42 0-27.07 9.843-49.56 29.53-67.47 19.688-17.91 48.604-26.866 86.749-26.866 31.855 0 59.028 8.443 81.518 25.328 22.49 16.884 34.283 41.391 35.376 73.52h-60.703c-1.094-18.184-9.023-31.103-23.789-38.76-9.844-5.058-22.08-7.588-36.709-7.588-16.27 0-29.258 3.282-38.965 9.844-9.707 6.563-14.56 15.723-14.56 27.48 0 10.802 4.785 18.868 14.355 24.2 6.153 3.555 19.277 7.725 39.375 12.51l52.09 12.51c22.832 5.468 40.059 12.783 51.68 21.943 18.047 14.219 27.07 34.795 27.07 61.728 0 27.618-10.561 50.552-31.684 68.804-21.124 18.252-50.962 27.378-89.517 27.378-39.375 0-70.342-8.99-92.9-26.968C11.71 645.847.432 621.135.432 589.69h60.293zM294.719 683V380.715h62.549v115.254h118.125V380.715h62.753V683h-62.753V548.059H357.268V683h-62.55zm361.552 0h-62.753V380.715h62.753V683z"/>
</svg>
