<svg xmlns="http://www.w3.org/2000/svg" width="16" height="18" viewBox="0 0 16 18">
    <path fill="#D0D6E0" fill-rule="nonzero" d="M14.765 1.165h-1.668A1.236 1.236 0 0 0 11.855 0H4.136c-.665 0-1.21.515-1.242 1.165H1.226C.55 1.165 0 1.715 0 2.39v3.124c0 .443.218.97.53 1.283l.867.87c.315.317.849.538 1.299.538h.194v.425c0 .62.41 1.377.932 1.722l2.67 1.755L6.11 14.4H4.36a.65.65 0 0 0-.604.46l-.715 2.545a.466.466 0 0 0 .074.414c.088.115.228.181.384.181h8.994a.477.477 0 0 0 .385-.18.465.465 0 0 0 .074-.414l-.715-2.547a.65.65 0 0 0-.604-.459H9.88l-.383-2.292 2.676-1.758c.522-.345.937-1.098.937-1.72v-.424h.185c.451 0 .986-.221 1.3-.537l.871-.871c.315-.316.534-.843.534-1.283V2.391c0-.676-.554-1.226-1.235-1.226zM2.89 6.618h-.187a.482.482 0 0 1-.168-.07l-.857-.86a.498.498 0 0 1-.073-.178V2.753H2.89v3.865zm11.505-1.11a.505.505 0 0 1-.076.18l-.86.86a.492.492 0 0 1-.17.07h-.179V2.753h1.285v2.755z"/>
</svg>
