<svg xmlns="http://www.w3.org/2000/svg" xmlns:xlink="http://www.w3.org/1999/xlink" width="42" height="42" viewBox="0 0 42 42">
    <defs>
        <circle id="a" cx="21" cy="21" r="21"/>
        <filter id="b" width="148.1%" height="138.2%" x="-24.1%" y="-19.1%" filterUnits="objectBoundingBox">
            <feOffset in="SourceAlpha" result="shadowOffsetOuter1"/>
            <feGaussianBlur in="shadowOffsetOuter1" result="shadowBlurOuter1" stdDeviation="1.5"/>
            <feColorMatrix in="shadowBlurOuter1" result="shadowMatrixOuter1" values="0 0 0 0 0 0 0 0 0 0 0 0 0 0 0 0 0 0 0.15 0"/>
            <feMerge>
                <feMergeNode in="shadowMatrixOuter1"/>
                <feMergeNode in="SourceGraphic"/>
            </feMerge>
        </filter>
    </defs>
    <g fill="none" fill-rule="evenodd">
        <mask id="c" fill="#fff">
            <use xlink:href="#a"/>
        </mask>
        <use fill="#E6EBF0" xlink:href="#a"/>
        <g fill-rule="nonzero" filter="url(#b)" mask="url(#c)">
            <path fill="#FFE6B8" d="M21.456 29.02l10.698 13.623h2.58c0-4.277-1.942-8.093-4.978-10.59l-1.83.639-1.829-2.782a13.202 13.202 0 0 0-4.641-.89z"/>
            <path fill="#FFF3DC" d="M21.456 29.02c5.921.095 10.698 6.157 10.698 13.623H7.897c0-4.277 1.941-8.093 4.977-10.59l1.83.886 1.829-3.029a13.21 13.21 0 0 1 4.783-.89h.14z"/>
            <path fill="#FFDB9A" d="M28.62 17.518h-2.526l-4.778 9.102a7.378 7.378 0 0 0 5.272-2.217 7.603 7.603 0 0 0 2.184-5.353c0-.525-.052-1.038-.153-1.532z"/>
            <path fill="#FFE6B8" d="M26.094 17.518c.065.494.1 1.007.1 1.532 0 4.18-2.185 7.57-4.878 7.57-4.12 0-7.458-3.39-7.458-7.57 0-.523.053-1.033.151-1.526l.003-.006h12.082z"/>
            <path fill="#FEC45E" d="M26.887 12.222l1.735 5.296h-2.579l-3.74-3.214L24.315 11l.315-.095c.996-.304 2.012.289 2.256 1.317z"/>
            <path fill="#FCDB5A" d="M24.88 11.941l1.163 5.576H14.009l1.918-5.583c.26-1.023 1.288-1.613 2.286-1.31l3.16-1.04.018.006 2.734 1.169.13-.04c.303.226.54.659.626 1.222z"/>
            <path fill="#FEC45E" d="M21.315 32.904a.65.65 0 0 1-.644-.655V29.02a.65.65 0 0 1 .644-.654.65.65 0 0 1 .645.654v3.23a.65.65 0 0 1-.645.654z"/>
            <path fill="#D35B38" d="M26.096 38.374h-9.562a.65.65 0 0 0-.645.654.65.65 0 0 0 .645.655h9.562a.65.65 0 0 0 .645-.655.65.65 0 0 0-.645-.654z"/>
            <path fill="#FEC45E" d="M28.67 18.172H13.936c-.257 0-.466-.293-.466-.654 0-.362.209-.655.466-.655H28.67c.258 0 .466.293.466.655 0 .361-.208.654-.466.654z"/>
            <path fill="#971F36" d="M29.756 32.052a13.294 13.294 0 0 0-3.66-2.14v.501l1.83 12.23h1.83V42.5 32.052z"/>
            <path fill="#C42A47" d="M27.926 31.846v10.797H12.875v-10.59a13.292 13.292 0 0 1 3.658-2.142v6.5h9.563v-5.998c.65.402 1.262.883 1.83 1.433z"/>
        </g>
    </g>
</svg>
