<?xml version="1.0" encoding="UTF-8"?>
<svg width="15px" height="18px" viewBox="0 0 15 18" version="1.1" xmlns="http://www.w3.org/2000/svg" xmlns:xlink="http://www.w3.org/1999/xlink">
    <!-- Generator: Sketch 52.2 (67145) - http://www.bohemiancoding.com/sketch -->
    <title>Path Copy 2</title>
    <desc>Created with Sketch.</desc>
    <g id="Page-1" stroke="none" stroke-width="1" fill="none" fill-rule="evenodd">
        <g id="Zakazchik-Copy-7" transform="translate(-771.000000, -956.000000)" fill="#D0D6E0">
            <g id="Group-16" transform="translate(356.000000, 727.000000)">
                <g id="Group-24" transform="translate(415.000000, 229.000000)">
                    <path d="M7.79871341,18 C7.76738766,18 7.73606191,17.999717 7.70501585,17.999434 C7.70137982,17.999434 7.69746411,17.999434 7.692989,17.999434 C7.63341413,17.999434 7.50251725,17.9971699 7.50251725,17.9971699 C7.50251725,17.9971699 7.36882342,17.999434 7.30924855,17.999434 C7.30477345,17.999434 7.30057803,17.999434 7.2972217,17.999434 C7.26561626,17.999717 7.2348499,18 7.20352415,18 C4.51594257,18 1.99841507,16.8580548 1.99841507,16.8580548 C1.89912362,16.8733373 1.80262913,16.8804126 1.70949096,16.8804126 C0.646093604,16.8804126 0,15.9623282 0,15.9623282 L0.335912735,13.3560894 C0.550158493,10.9940882 2.69709118,10.5871199 3.12614208,10.4509921 C3.55547268,10.3151473 5.11169122,9.88072702 5.32621667,9.39196881 C5.39809808,9.22952108 5.40369196,8.92019119 5.37935857,8.58199428 C4.76682827,7.83739505 4.3651874,6.89695293 4.15038225,6.29668878 C4.05976133,6.36064904 3.98480328,6.38357284 3.92382995,6.38357284 C3.77223569,6.38357284 3.70734663,6.24291689 3.70734663,6.24291689 C2.71415253,4.77664224 3.33143763,4.17977422 3.46541115,4.07109839 C3.49533843,4.04704255 3.52498602,4.03742021 3.55351482,4.03742021 C3.65252657,4.03742021 3.73363789,4.15260526 3.73363789,4.15260526 L3.74734291,4.1933587 C3.55798993,0.281311908 6.86761141,0.017546618 7.24687675,0 C7.24016409,0.00169805981 7.27876189,0.00424514952 7.50251725,0.0101883589 C7.72319597,0.00424514952 7.76291255,0.00169805981 7.75675928,0 C8.14413574,0.0183956479 11.4408913,0.287255118 11.251818,4.1933587 L11.265523,4.15260526 C11.265523,4.15260526 11.3466343,4.03742021 11.4456461,4.03742021 C11.4741749,4.03742021 11.5041022,4.04704255 11.5337498,4.07109839 C11.6677233,4.17977422 12.2850084,4.77664224 11.2918143,6.24291689 C11.2918143,6.24291689 11.2269252,6.38357284 11.075331,6.38357284 C11.0143576,6.38357284 10.9393996,6.36064904 10.8487787,6.29668878 C10.6342532,6.89695293 10.2326123,7.83739505 9.61980235,8.58199428 C9.59546895,8.92019119 9.60106284,9.22952108 9.67322394,9.39196881 C9.8874697,9.88072702 11.4436882,10.3151473 11.8730188,10.4509921 C12.3023494,10.5871199 14.4490024,10.9940882 14.6632482,13.3560894 L15,15.9623282 C15,15.9623282 14.3544658,16.8804126 13.2913481,16.8804126 C13.19821,16.8804126 13.1017155,16.8733373 13.0021443,16.8580548 C13.0021443,16.8580548 10.486295,18 7.79871341,18" id="Path-Copy-2"></path>
                </g>
            </g>
        </g>
    </g>
</svg>