<svg xmlns="http://www.w3.org/2000/svg" width="40" height="40" viewBox="0 0 40 40">
    <g fill="none" fill-rule="evenodd">
        <circle cx="20" cy="20" r="20" fill="#646F8F"/>
        <path fill="#FFF" d="M29.9 24.934a1.328 1.328 0 0 0-.065-.125c-.33-.603-.96-1.342-1.89-2.219l-.02-.02-.01-.01-.009-.01h-.01c-.422-.408-.69-.683-.801-.823-.205-.268-.25-.539-.139-.813.08-.208.376-.646.89-1.315.27-.355.485-.64.643-.853 1.141-1.54 1.636-2.523 1.484-2.952l-.059-.1c-.04-.06-.141-.115-.306-.165s-.376-.059-.633-.025l-2.85.02a.365.365 0 0 0-.197.005l-.129.03-.05.025-.039.03a.442.442 0 0 0-.109.105.691.691 0 0 0-.098.176 16.5 16.5 0 0 1-1.06 2.259c-.243.415-.467.774-.672 1.079a5.183 5.183 0 0 1-.514.672c-.139.144-.264.26-.376.346-.112.088-.198.124-.257.111a7.16 7.16 0 0 1-.169-.04.664.664 0 0 1-.222-.246 1.113 1.113 0 0 1-.114-.392 4.378 4.378 0 0 1-.035-.406 8.618 8.618 0 0 1 .005-.482c.007-.208.01-.348.01-.422 0-.254.005-.53.015-.828l.025-.707c.007-.174.01-.359.01-.553 0-.194-.012-.346-.035-.456a1.579 1.579 0 0 0-.103-.322.539.539 0 0 0-.203-.24 1.134 1.134 0 0 0-.332-.136c-.35-.08-.794-.124-1.335-.13-1.227-.014-2.015.066-2.365.24a1.336 1.336 0 0 0-.375.301c-.12.148-.136.228-.05.241.396.06.676.204.84.432l.06.12c.046.087.093.241.139.462.046.221.076.465.089.733.033.488.033.907 0 1.255a15.16 15.16 0 0 1-.094.813 1.646 1.646 0 0 1-.253.692.171.171 0 0 1-.049.05.732.732 0 0 1-.267.05c-.092 0-.205-.046-.336-.14a2.387 2.387 0 0 1-.41-.386 5.166 5.166 0 0 1-.48-.688 12.057 12.057 0 0 1-.555-1.044l-.158-.291c-.099-.187-.234-.46-.405-.818a15.892 15.892 0 0 1-.456-1.04.66.66 0 0 0-.237-.32l-.05-.03a.674.674 0 0 0-.158-.086 1.038 1.038 0 0 0-.227-.065l-2.71.02c-.278 0-.466.064-.565.19l-.04.061a.329.329 0 0 0-.029.16c0 .074.02.165.06.272.395.943.825 1.853 1.29 2.73.465.877.87 1.583 1.212 2.118.343.535.693 1.04 1.049 1.516.356.475.592.78.707.913.115.134.206.234.272.301l.247.241c.159.16.391.353.698.577.307.225.646.445 1.019.663.372.217.806.395 1.3.532.495.137.977.192 1.445.166h1.138c.23-.02.405-.094.524-.221l.04-.05a.67.67 0 0 0 .073-.186c.024-.084.035-.176.035-.276a3.355 3.355 0 0 1 .064-.778c.05-.23.106-.405.169-.522a1.282 1.282 0 0 1 .38-.441.64.64 0 0 1 .08-.036c.158-.053.344-.001.559.156.214.157.415.352.603.582.188.231.414.49.678.778.264.288.494.502.692.643l.198.12c.132.08.304.154.515.221.21.067.395.084.553.05l2.533-.04c.25 0 .445-.042.583-.125.139-.084.221-.176.248-.276a.789.789 0 0 0 .005-.342 1.275 1.275 0 0 0-.07-.266z"/>
    </g>
</svg>
