<svg xmlns="http://www.w3.org/2000/svg" width="56" height="53" viewBox="0 0 56 53">
    <path fill="#FFF" fill-rule="evenodd" d="M54.25 12.75c.583.083.958.458 1.125 1.125l-.125 35c0 .25-.125.542-.375.875-.167.167-.417.25-.75.25H38.5l-.125 1.75c0 .25-.125.5-.375.75-.25.167-.5.25-.75.25h-.125l-33.25-2.875c-.667-.083-1-.458-1-1.125l.375-4.5H1.125C.542 44.167.167 43.792 0 43.125V6.25c.083-.583.458-.958 1.125-1.125H6.5L6.875 1c0-.333.125-.583.375-.75.25-.167.542-.25.875-.25l33.25 2.75c.583.083.917.5 1 1.25l-.125 1.125H49c.583.083.958.458 1.125 1.125v6.375l4.125.125zM9 2.25l-.25 2.875H40v-.25L9 2.25zM2.25 7.375V42h45.625V7.375H2.25zm3 40.375l31 2.625.5-6.125H5.5l-.25 3.5zm47.75 0L53.125 15l-3-.125v28.25c-.083.583-.458.958-1.125 1.125H39l-.25 3.5H53zm-13.119-16c1.812.083 1.976.458 2.494 1.125-.259.583-.423.958-2.494 1.125H9.931c-1.812-.083-1.976-.458-2.494-1.125.259-.583.424-.958 2.494-1.125h29.95zm0-7c1.812.083 1.976.458 2.494 1.125-.259.583-.423.958-2.494 1.125H9.931c-1.812-.083-1.976-.458-2.494-1.125.259-.583.424-.958 2.494-1.125h29.95zm0-7c1.812.083 1.976.458 2.494 1.125-.259.583-.423.958-2.494 1.125H9.931c-1.812-.083-1.976-.458-2.494-1.125.259-.583.424-.958 2.494-1.125h29.95z"/>
</svg>
