<svg xmlns="http://www.w3.org/2000/svg" width="40" height="40" viewBox="0 0 40 40">
    <g fill="none" fill-rule="evenodd">
        <circle cx="20" cy="20" r="20" fill="#646F8F"/>
        <g fill="#FFF" transform="translate(10 11)">
            <path fill-rule="nonzero" d="M13.063 0H5.936A5.938 5.938 0 0 0 0 5.938v7.125A5.938 5.938 0 0 0 5.938 19h7.125A5.938 5.938 0 0 0 19 13.062V5.939A5.938 5.938 0 0 0 13.062 0zm4.156 13.063a4.16 4.16 0 0 1-4.157 4.156H5.939a4.16 4.16 0 0 1-4.157-4.157V5.939A4.16 4.16 0 0 1 5.938 1.78h7.125a4.16 4.16 0 0 1 4.156 4.157v7.125z"/>
            <path fill-rule="nonzero" d="M9.5 4.75a4.75 4.75 0 1 0 0 9.5 4.75 4.75 0 0 0 0-9.5zm0 7.719A2.973 2.973 0 0 1 6.531 9.5 2.972 2.972 0 0 1 9.5 6.531 2.972 2.972 0 0 1 12.469 9.5 2.973 2.973 0 0 1 9.5 12.469z"/>
            <circle cx="14.929" cy="4.071" r="1"/>
        </g>
    </g>
</svg>
