<svg xmlns="http://www.w3.org/2000/svg" width="19" height="18" viewBox="0 0 19 18">
    <path fill="#C1C6CE" fill-rule="nonzero" d="M17.369.02H1.63C.731.02 0 .768 0 1.69v10.02c0 .922.732 1.671 1.631 1.671h.954v4.124c0 .192.113.366.287.44a.455.455 0 0 0 .507-.104l4.355-4.46h9.635c.9 0 1.63-.749 1.63-1.67V1.69C19 .769 18.27.02 17.37.02zm-.823 11.507H7.193c-.107 0-.25.02-.324.085l-.205.2-2.386 2.852.002-2.56c0-.014 0-.2-.002-.212a.407.407 0 0 0-.408-.365H2.618A.613.613 0 0 1 2 10.92V2.626c0-.335.277-.607.618-.607h13.928c.34 0 .618.272.618.607v8.294a.613.613 0 0 1-.618.607z"/>
</svg>
