<svg xmlns="http://www.w3.org/2000/svg" width="56" height="55" viewBox="0 0 56 55">
    <path fill="#FFF" fill-rule="evenodd" d="M37 .5c4.083 0 7.792 1.375 11.125 4.125 4.917 4 7.375 9.333 7.375 16 0 4.583-1.333 8.75-4 12.5C47.833 38.208 43 40.75 37 40.75h-5.125l-14.75 13.125c-.25.167-.5.25-.75.25a1.11 1.11 0 0 1-.5-.125c-.333-.167-.542-.5-.625-1V40.25c-2.583-.667-4.958-1.917-7.125-3.75-4.833-4-7.25-9.292-7.25-15.875 0-4.583 1.333-8.75 4-12.5C8.625 3.042 13.458.5 19.375.5H37zm0 38c3.417 0 6.583-1.125 9.5-3.375 4.583-3.5 6.875-8.333 6.875-14.5 0-3.917-1.083-7.458-3.25-10.625C46.792 5.167 42.417 2.75 37 2.75H19.375c-3.5 0-6.667 1.125-9.5 3.375-4.5 3.5-6.75 8.333-6.75 14.5 0 2.917.625 5.708 1.875 8.375 2.5 5.167 6.375 8.25 11.625 9.25.5.167.792.542.875 1.125V50.5l13.25-11.75c.25-.167.5-.25.75-.25H37zM16.625 16.125c.583 0 1.167.125 1.75.375 2.083.833 3.125 2.333 3.125 4.5 0 .667-.125 1.333-.375 2-.833 2-2.333 3-4.5 3a4.412 4.412 0 0 1-1.75-.375c-2.083-.75-3.125-2.292-3.125-4.625 0-.583.125-1.167.375-1.75.75-2.083 2.25-3.125 4.5-3.125zm0 7.625c.167 0 .333-.042.5-.125 1.417-.333 2.125-1.208 2.125-2.625 0-.25-.042-.5-.125-.75-.417-1.25-1.25-1.875-2.5-1.875-.167 0-.375.042-.625.125-1.333.25-2 1.083-2 2.5.333 1.417 1.208 2.333 2.625 2.75zm11.75-7.625c.583 0 1.167.125 1.75.375 2.083.75 3.125 2.25 3.125 4.5 0 .583-.083 1.167-.25 1.75-.833 2.167-2.375 3.25-4.625 3.25a4.412 4.412 0 0 1-1.75-.375C24.542 24.792 23.5 23.25 23.5 21c0-.583.125-1.167.375-1.75.833-2.083 2.333-3.125 4.5-3.125zm0 7.625c.167 0 .375-.042.625-.125 1.333-.25 2-1.125 2-2.625 0-.167-.042-.375-.125-.625-.25-1.333-1.083-2-2.5-2-.25 0-.5.042-.75.125-1.25.417-1.875 1.25-1.875 2.5 0 .25.042.5.125.75.417 1.333 1.25 2 2.5 2zm11.875-7.625c.583 0 1.167.125 1.75.375 2.083.833 3.125 2.333 3.125 4.5 0 .667-.125 1.333-.375 2-.833 2-2.333 3-4.5 3a4.412 4.412 0 0 1-1.75-.375c-2.083-.75-3.125-2.292-3.125-4.625 0-.583.125-1.167.375-1.75.75-2.083 2.25-3.125 4.5-3.125zm0 7.625c.167 0 .333-.042.5-.125 1.417-.333 2.125-1.208 2.125-2.625 0-.25-.042-.5-.125-.75-.417-1.25-1.25-1.875-2.5-1.875-.167 0-.375.042-.625.125-1.333.25-2 1.083-2 2.5.333 1.417 1.208 2.333 2.625 2.75z"/>
</svg>
