<svg xmlns="http://www.w3.org/2000/svg" xmlns:xlink="http://www.w3.org/1999/xlink" width="96" height="76" viewBox="0 0 96 76">
    <defs>
        <linearGradient id="c" x1="50%" x2="88.767%" y1="0%" y2="100%">
            <stop offset="0%" stop-color="#FF4165"/>
            <stop offset="100%" stop-color="#CA3E59"/>
        </linearGradient>
        <path id="b" d="M28 20h8a4 4 0 0 0 4-4V4a4 4 0 0 0-4-4h-8a4 4 0 0 0-4 4v12a4 4 0 0 0 4 4z"/>
        <filter id="a" width="425%" height="360%" x="-162.5%" y="-110%" filterUnits="objectBoundingBox">
            <feOffset dy="4" in="SourceAlpha" result="shadowOffsetOuter1"/>
            <feGaussianBlur in="shadowOffsetOuter1" result="shadowBlurOuter1" stdDeviation="8"/>
            <feColorMatrix in="shadowBlurOuter1" values="0 0 0 0 0.0745098039 0 0 0 0 0.301960784 0 0 0 0 0.498039216 0 0 0 0.17 0"/>
        </filter>
        <path id="e" d="M60 32c0-11.141-6.557-20.755-16-25.26V16c0 4.411-3.589 8-8 8h-8c-4.411 0-8-3.589-8-8V6.74C10.557 11.245 4 20.86 4 32a4 4 0 0 0-4 4v4a4 4 0 0 0 4 4h56a4 4 0 0 0 4-4v-4a4 4 0 0 0-4-4z"/>
        <filter id="d" width="181.2%" height="239.6%" x="-40.6%" y="-59%" filterUnits="objectBoundingBox">
            <feOffset dy="4" in="SourceAlpha" result="shadowOffsetOuter1"/>
            <feGaussianBlur in="shadowOffsetOuter1" result="shadowBlurOuter1" stdDeviation="8"/>
            <feColorMatrix in="shadowBlurOuter1" values="0 0 0 0 0.0745098039 0 0 0 0 0.301960784 0 0 0 0 0.498039216 0 0 0 0.17 0"/>
        </filter>
    </defs>
    <g fill="none" fill-rule="evenodd">
        <g transform="translate(16 12)">
            <use fill="#000" filter="url(#a)" xlink:href="#b"/>
            <use fill="url(#c)" xlink:href="#b"/>
        </g>
        <g transform="translate(16 12)">
            <use fill="#000" filter="url(#d)" xlink:href="#e"/>
            <use fill="#FFF" xlink:href="#e"/>
        </g>
        <path fill="#D9E4ED" d="M20 42h56v2H20z"/>
    </g>
</svg>
