<svg xmlns="http://www.w3.org/2000/svg" width="70" height="70" viewBox="0 0 70 70">
    <defs>
        <filter id="a" width="198.1%" height="198.1%" x="-49%" y="-49%" filterUnits="objectBoundingBox">
            <feOffset dy="3" in="SourceAlpha" result="shadowOffsetOuter1"/>
            <feGaussianBlur in="shadowOffsetOuter1" result="shadowBlurOuter1" stdDeviation="5"/>
            <feColorMatrix in="shadowBlurOuter1" result="shadowMatrixOuter1" values="0 0 0 0 0.0745098039 0 0 0 0 0.301960784 0 0 0 0 0.498039216 0 0 0 0.17 0"/>
            <feMerge>
                <feMergeNode in="shadowMatrixOuter1"/>
                <feMergeNode in="SourceGraphic"/>
            </feMerge>
        </filter>
        <linearGradient id="b" x1="0%" y1="0%" y2="100%">
            <stop offset="0%" stop-color="#FF4165"/>
            <stop offset="100%" stop-color="#C42A47"/>
        </linearGradient>
    </defs>
    <g fill="none" fill-rule="evenodd" filter="url(#a)" transform="translate(9 6)">
        <rect width="20" height="53" x="15.939" y="-.561" fill="#FFF" rx="3" transform="rotate(-45 25.94 25.94)"/>
        <path fill="#D9E4ED" d="M4 17.81l6.589-6.47c.454-.453.909-.453 1.363 0 .454.454.454.908 0 1.362l-6.475 6.583 2.84 2.951 3.067-3.178c.454-.302.947-.302 1.477 0 .303.53.303 1.022 0 1.476l-3.067 3.064L4 17.81zM28.03 42.405l3.182-3.065c.454-.453.908-.453 1.363 0 .454.454.454.908 0 1.362l-3.067 3.178 2.84 2.838 6.588-6.583c.455-.303.947-.303 1.477 0 .303.53.303 1.021 0 1.475l-6.589 6.583c-4.165-4.01-6.096-5.94-5.793-5.788z"/>
        <path fill="url(#b)" d="M51 11.957c-.076.605-.34 1.21-.795 1.816L19.419 44.644c-.227.227-.53.416-.908.568L4.65 50.773c-.378.151-.719.227-1.022.227-.606-.076-1.212-.34-1.818-.794-.757-.833-.984-1.779-.681-2.838l5.68-13.847c.151-.302.34-.605.568-.908L38.163 1.856c.076-.076.19-.152.341-.227 1.212-.908 2.348-.833 3.408.227l8.293 8.171c.454.606.72 1.249.795 1.93z"/>
        <path fill="#FFF" d="M8.4 34.997L4.31 45.098l2.613 2.61 9.997-4.085z"/>
    </g>
</svg>
