<svg xmlns="http://www.w3.org/2000/svg" width="16" height="16" viewBox="0 0 16 16">
    <g fill="#828692" fill-rule="evenodd">
        <path fill-rule="nonzero" d="M14.125 1.25h-.75V0h-1.25v1.25h-8.25V0h-1.25v1.25h-.75A1.877 1.877 0 0 0 0 3.125v11C0 15.159.841 16 1.875 16h12.25A1.877 1.877 0 0 0 16 14.125v-11a1.877 1.877 0 0 0-1.875-1.875zm.625 12.875c0 .345-.28.625-.625.625H1.875a.626.626 0 0 1-.625-.625v-8.25h13.5v8.25zm0-9.5H1.25v-1.5c0-.345.28-.625.625-.625h.75v1.25h1.25V2.5h8.25v1.25h1.25V2.5h.75c.345 0 .625.28.625.625v1.5z"/>
        <path d="M3 7h1.25v1.25H3zM5 7h1.25v1.25H5zM7 7h1.25v1.25H7zM9 7h1.25v1.25H9zM11 7h1.25v1.25H11zM3 9.5h1.25v1.25H3zM5 9.5h1.25v1.25H5zM7 9.5h1.25v1.25H7zM9 9.5h1.25v1.25H9zM11 9.5h1.25v1.25H11zM3 12h1.25v1.25H3zM5 12h1.25v1.25H5zM7 12h1.25v1.25H7zM9 12h1.25v1.25H9zM11 12h1.25v1.25H11z"/>
    </g>
</svg>
