<svg xmlns="http://www.w3.org/2000/svg" width="52" height="56" viewBox="0 0 52 56">
    <path fill="#FFF" fill-rule="evenodd" d="M34.375 49.125l1.375 5.125c0 .083.042.25.125.5-.083.583-.458.958-1.125 1.125H16.875c-.25 0-.542-.125-.875-.375-.167-.25-.208-.583-.125-1l1.375-5.375c.25-.5.625-.75 1.125-.75H22.5V41.25c.083-.583.458-.958 1.125-1.125.583.083.958.458 1.125 1.125v7.125H27V41.25c.083-.583.458-.958 1.125-1.125.583.083.958.458 1.125 1.125v7.125h4c.5.083.875.333 1.125.75zm-16 4.5H33.25l-.875-3H19.25l-.875 3zM45.75 8.25c1 .333 1.958.917 2.875 1.75 2.417 2.5 3.042 5.75 1.875 9.75-.25 1-.667 2-1.25 3-1.75 3.083-4.083 4.625-7 4.625h-.5a28.5 28.5 0 0 1-2.125 3.75c-3.5 4.833-8.083 7.25-13.75 7.25-1.417 0-2.875-.208-4.375-.625-5.333-1.417-9.208-4.875-11.625-10.375h-.5c-.667 0-1.417-.125-2.25-.375-3-1.083-5-3.5-6-7.25a12.671 12.671 0 0 1-.25-5c.5-3.583 2.167-5.75 5-6.5.333-.083.875-.125 1.625-.125h.75V3.25C8.583 1.75 9.5.792 11 .375h29.625c.25 0 .5.042.75.125C42.792.917 43.5 1.833 43.5 3.25v4.875h.625c.667 0 1.208.042 1.625.125zM3.25 19.125c.167.5.375 1 .625 1.5 1.25 2.75 2.958 4.25 5.125 4.5-.5-1.833-.75-3.75-.75-5.75v-9H7.5a4.11 4.11 0 0 0-1 .125c-.5.167-1.042.458-1.625.875-1.917 1.833-2.458 4.417-1.625 7.75zm38 .25V3.25c-.083-.25-.292-.458-.625-.625H11a.803.803 0 0 0-.625.625v16.125c0 1.5.292 3.292.875 5.375.417 1 .708 1.667.875 2a55.54 55.54 0 0 0 1.125 2.125c3.083 4.833 7.292 7.25 12.625 7.25 3.167 0 6.125-1 8.875-3 4.333-3.417 6.5-8 6.5-13.75zm7.125-.25c.25-1 .375-2 .375-3-.167-3.167-1.375-5.042-3.625-5.625-.167-.083-.5-.125-1-.125H43.5v9c0 1.583-.292 3.5-.875 5.75.333 0 .708-.083 1.125-.25 2.25-.833 3.792-2.75 4.625-5.75zm-14.5-5.5c.667.167 1.167.542 1.5 1.125.083.833-.125 1.458-.625 1.875L30.875 19.5l1.5 4.625c.083.667-.125 1.25-.625 1.75-.667.333-1.292.333-1.875 0l-4-2.75-4 2.75a4.885 4.885 0 0 1-1 .375c-.25 0-.542-.125-.875-.375-.583-.417-.792-1-.625-1.75L20.75 19.5l-3.875-2.875c-.5-.417-.708-1.042-.625-1.875.25-.5.792-.875 1.625-1.125h4.875L24.25 9c.333-.583.875-.917 1.625-1a1.915 1.915 0 0 1 1.5 1L29 13.625h4.875zm-5 4.5L32 15.875l-3.875-.125c-.417-.083-.75-.333-1-.75l-1.25-3.625L24.5 15c-.167.417-.5.667-1 .75l-3.875.125 3.125 2.25c.333.417.458.833.375 1.25L22 23.125l3.25-2.25a1.625 1.625 0 0 1 1.25 0l3.125 2.25-1.125-3.75c-.083-.417.042-.833.375-1.25z"/>
</svg>
