<svg xmlns="http://www.w3.org/2000/svg" width="20" height="12" viewBox="0 0 20 12">
    <path fill="#C1C6CE" fill-rule="nonzero" d="M9.983 1.218c2.552 0 4.712 1.15 6.074 2.114 1.614 1.142 2.445 2.247 2.66 2.669-.215.42-1.046 1.526-2.66 2.668-1.362.965-3.522 2.114-6.074 2.114S5.272 9.633 3.91 8.669C2.295 7.527 1.464 6.422 1.25 6.001c.215-.422 1.046-1.527 2.66-2.67 1.363-.964 3.522-2.113 6.074-2.113zm0-1.196C4.47.022 0 4.805 0 6.001c0 1.195 4.47 5.978 9.983 5.978 5.514 0 9.983-4.783 9.983-5.978 0-1.196-4.47-5.979-9.983-5.979zm0 2.392c-2.005 0-3.63 1.606-3.63 3.587 0 1.98 1.625 3.586 3.63 3.586s3.63-1.606 3.63-3.586c0-1.981-1.625-3.587-3.63-3.587z"/>
</svg>
