<svg xmlns="http://www.w3.org/2000/svg" xmlns:xlink="http://www.w3.org/1999/xlink" width="88" height="66" viewBox="0 0 88 66">
    <defs>
        <filter id="a" width="210.9%" height="250%" x="-55.5%" y="-73.9%" filterUnits="objectBoundingBox">
            <feOffset dy="3" in="SourceAlpha" result="shadowOffsetOuter1"/>
            <feGaussianBlur in="shadowOffsetOuter1" result="shadowBlurOuter1" stdDeviation="5"/>
            <feColorMatrix in="shadowBlurOuter1" result="shadowMatrixOuter1" values="0 0 0 0 0.0745098039 0 0 0 0 0.301960784 0 0 0 0 0.498039216 0 0 0 0.17 0"/>
            <feMerge>
                <feMergeNode in="shadowMatrixOuter1"/>
                <feMergeNode in="SourceGraphic"/>
            </feMerge>
        </filter>
        <linearGradient id="d" x1="50%" x2="88.767%" y1="0%" y2="100%">
            <stop offset="0%" stop-color="#FF4165"/>
            <stop offset="100%" stop-color="#CA3E59"/>
        </linearGradient>
        <path id="c" d="M63.667 16.776c.37.369.432.738.185 1.106-.432.369-.832.4-1.202.092l-2.035-1.659V38.07c-.062.43-.34.707-.832.83h-14.11c-.432-.062.123-21.631 0-22.123l-19.278-.46-1.942 1.658c-.185.185-.37.277-.555.277-.124 0-.34-.123-.648-.369-.308-.368-.277-.737.093-1.106L42.95.184c.37-.245.74-.245 1.11 0l19.607 16.592z"/>
        <filter id="b" width="180.6%" height="184.8%" x="-40.3%" y="-34.7%" filterUnits="objectBoundingBox">
            <feOffset dy="3" in="SourceAlpha" result="shadowOffsetOuter1"/>
            <feGaussianBlur in="shadowOffsetOuter1" result="shadowBlurOuter1" stdDeviation="5"/>
            <feColorMatrix in="shadowBlurOuter1" values="0 0 0 0 0.0745098039 0 0 0 0 0.301960784 0 0 0 0 0.498039216 0 0 0 0.17 0"/>
        </filter>
        <path id="f" d="M40.627 16.776c.37.369.432.738.185 1.106-.432.369-.832.4-1.202.092l-2.035-1.659V38.07c-.062.43-.34.707-.832.83h-14.11c-.432-.062.123-21.631 0-22.123l-19.278-.46-1.942 1.658c-.185.185-.37.277-.555.277-.124 0-.34-.123-.648-.369-.308-.368-.277-.737.093-1.106L19.91.184c.37-.245.74-.245 1.11 0l19.607 16.592z"/>
        <filter id="e" width="180.6%" height="184.8%" x="-40.3%" y="-34.7%" filterUnits="objectBoundingBox">
            <feOffset dy="3" in="SourceAlpha" result="shadowOffsetOuter1"/>
            <feGaussianBlur in="shadowOffsetOuter1" result="shadowBlurOuter1" stdDeviation="5"/>
            <feColorMatrix in="shadowBlurOuter1" values="0 0 0 0 0.0745098039 0 0 0 0 0.301960784 0 0 0 0 0.498039216 0 0 0 0.17 0"/>
        </filter>
    </defs>
    <g fill="none" fill-rule="evenodd" filter="url(#a)" transform="translate(12 7)">
        <use fill="#000" filter="url(#b)" xlink:href="#c"/>
        <use fill="url(#d)" xlink:href="#c"/>
        <g transform="matrix(-1 0 0 1 40.96 0)">
            <use fill="#000" filter="url(#e)" xlink:href="#f"/>
            <use fill="url(#d)" xlink:href="#f"/>
        </g>
        <path fill="#FFF" d="M25.823 32.33v-5.186h-5.2v5.186h5.2zm26.324-10.452c.37.368.432.737.185 1.106-.432.368-.832.4-1.202.092l-2.035-1.66V43.17c-.062.43-.34.707-.832.83H15.707c-.431-.061-.709-.338-.832-.83V21.417l-1.942 1.659c-.185.184-.37.276-.555.276-.124 0-.34-.122-.648-.368-.308-.369-.277-.738.093-1.106L31.43 5.286c.37-.246.74-.246 1.11 0l19.607 16.592zM32.975 44h7.802V27.144h-7.802V44z"/>
    </g>
</svg>
