<svg xmlns="http://www.w3.org/2000/svg" width="72" height="77" viewBox="0 0 72 77">
    <defs>
        <filter id="a" width="198.1%" height="189.5%" x="-49%" y="-44.7%" filterUnits="objectBoundingBox">
            <feOffset dy="3" in="SourceAlpha" result="shadowOffsetOuter1"/>
            <feGaussianBlur in="shadowOffsetOuter1" result="shadowBlurOuter1" stdDeviation="5"/>
            <feColorMatrix in="shadowBlurOuter1" result="shadowMatrixOuter1" values="0 0 0 0 0.0745098039 0 0 0 0 0.301960784 0 0 0 0 0.498039216 0 0 0 0.17 0"/>
            <feMerge>
                <feMergeNode in="shadowMatrixOuter1"/>
                <feMergeNode in="SourceGraphic"/>
            </feMerge>
        </filter>
        <linearGradient id="b" x1="50%" y1="0%" y2="50%">
            <stop offset="0%" stop-color="#FF4165"/>
            <stop offset="100%" stop-color="#CA3E59"/>
        </linearGradient>
    </defs>
    <g fill="none" fill-rule="evenodd" filter="url(#a)" transform="translate(10 7)">
        <path fill="#FFF" d="M48 8h-4V4a4 4 0 0 0-4-4H4a4 4 0 0 0-4 4v12a4 4 0 0 0 4 4h36a4 4 0 0 0 4-4v-4h4v12H22a4 4 0 0 0-4 4v6a4 4 0 0 0-4 4v15a4 4 0 0 0 4 4h4a4 4 0 0 0 4-4V38a4 4 0 0 0-4-4v-6h26a4 4 0 0 0 4-4V12a4 4 0 0 0-4-4z"/>
        <path fill="url(#b)" d="M44 8V4a4 4 0 0 0-4-4H4a4 4 0 0 0-4 4v12a4 4 0 0 0 4 4h36a4 4 0 0 0 4-4V8z"/>
        <path fill="#FFF" d="M40 8H4V4h36z"/>
        <path fill="#D9E4ED" d="M48 8h-4v4h4v12H22a4 4 0 0 0-4 4v5.805h4V28h26a4 4 0 0 0 4-4V12a4 4 0 0 0-4-4z"/>
    </g>
</svg>
