<svg xmlns="http://www.w3.org/2000/svg" width="40" height="40" viewBox="0 0 40 40">
    <g fill="none" fill-rule="evenodd">
        <circle cx="20" cy="20" r="20" fill="#646F8F"/>
        <path fill="#FFF" d="M24.661 12.003L22.502 12c-2.425 0-3.992 1.546-3.992 3.938v1.815h-2.17a.333.333 0 0 0-.34.327v2.63c0 .18.152.326.34.326h2.17v6.638c0 .18.152.326.34.326h2.831c.188 0 .34-.146.34-.326v-6.638h2.537c.188 0 .34-.146.34-.326v-2.63a.32.32 0 0 0-.099-.231.347.347 0 0 0-.24-.096h-2.538v-1.539c0-.74.183-1.115 1.186-1.115h1.454c.187 0 .339-.147.339-.327V12.33a.333.333 0 0 0-.339-.327z"/>
    </g>
</svg>
