<svg xmlns="http://www.w3.org/2000/svg" width="11" height="14" viewBox="0 0 11 14">
    <path fill="#3B4256" fill-rule="nonzero" d="M10.697 6.642a.862.862 0 0 0-.647-.278h-.305v-1.91c0-1.22-.418-2.266-1.256-3.141C7.651.438 6.649 0 5.482 0c-1.168 0-2.17.438-3.008 1.313-.837.875-1.256 1.922-1.256 3.141v1.91H.914a.862.862 0 0 0-.648.278.941.941 0 0 0-.266.676v5.727c0 .265.089.491.266.677A.863.863 0 0 0 .914 14h9.136c.254 0 .47-.093.647-.278a.943.943 0 0 0 .266-.677V7.318a.941.941 0 0 0-.266-.676zm-2.779-.278H3.045v-1.91c0-.702.238-1.302.714-1.8.476-.496 1.05-.745 1.723-.745.672 0 1.246.249 1.722.746s.714 1.097.714 1.8v1.909z"/>
</svg>
