<svg xmlns="http://www.w3.org/2000/svg" width="11" height="14" viewBox="0 0 11 14">
    <g fill="#C1C6CE" fill-rule="nonzero">
        <path d="M10.715 6.642a.862.862 0 0 0-.647-.278H.932a.862.862 0 0 0-.647.278.941.941 0 0 0-.267.676v5.727c0 .265.09.491.267.677A.863.863 0 0 0 .932 14h9.136c.254 0 .47-.093.647-.278a.943.943 0 0 0 .267-.677V7.318a.941.941 0 0 0-.267-.676z"/>
        <path d="M3.064 6.364H1.236v-1.91c0-1.22.419-2.266 1.257-3.141C3.33.438 4.333 0 5.5 0c1.168 0 2.17.438 3.007 1.313.659.687 1.058 1.482 1.199 2.383h-1.77c-.299-.574-.238-.544-.713-1.041-.476-.497-1.05-.746-1.723-.746s-1.247.249-1.723.746a2.509 2.509 0 0 0-.713 1.8v1.909z"/>
    </g>
</svg>
