<svg xmlns="http://www.w3.org/2000/svg" width="56" height="57" viewBox="0 0 56 57">
    <path fill="#FFF" fill-rule="evenodd" d="M24 29.375c.583.083.958.458 1.125 1.125-.083.583-.458.958-1.125 1.125H9c-.583-.083-.958-.458-1.125-1.125.083-.583.458-.958 1.125-1.125h15zm0 7c.583.083.958.458 1.125 1.125-.083.583-.458.958-1.125 1.125H9c-.583-.083-.958-.458-1.125-1.125.083-.583.458-.958 1.125-1.125h15zM24 22.5c.583.083.958.458 1.125 1.125-.083.583-.458.958-1.125 1.125H9c-.583-.083-.958-.458-1.125-1.125.083-.583.458-.958 1.125-1.125h15zm16.875 24.875c.583.167.958.542 1.125 1.125v5c0 .25-.042.5-.125.75-.417 1.5-1.375 2.25-2.875 2.25H3.625c-.25 0-.5-.042-.75-.125C1.375 55.958.625 55 .625 53.5V3.625c.333-1.583 1.333-2.583 3-3H31.25c.833 0 1.5.292 2 .875l7.875 7.625c.5.583.792 1.292.875 2.125v4.375c-.083.583-.458.958-1.125 1.125-.583-.083-.958-.458-1.125-1.125v-3.25h-8.5c-.583-.083-.958-.458-1.125-1.125V2.875h-26.5c-.417.083-.667.333-.75.75V53.5c.083.417.333.667.75.75H39c.333-.083.583-.333.75-.75v-5c.167-.667.542-1.042 1.125-1.125zM39 10.125l-6.625-6.5v6.5H39zM54.625 39c.75.333 1.167.958 1.25 1.875V44c-.083 1.167-.75 1.833-2 2h-23.25c-1.167-.083-1.833-.75-2-2v-3.125c.083-.917.5-1.542 1.25-1.875.083 0 .167-.042.25-.125C34.875 37.042 37.5 35.75 38 35v-.5c-.667-.75-1.208-1.833-1.625-3.25-.583-.5-.917-1.292-1-2.375 0-.583.125-1.125.375-1.625v-2.5c0-.5.042-1.042.125-1.625.75-2.917 2.875-4.375 6.375-4.375.5 0 1 .042 1.5.125 3.333.583 5 2.542 5 5.875v2.5c.25.5.375 1.042.375 1.625 0 .833-.333 1.625-1 2.375-.417 1.167-1 2.25-1.75 3.25v.5l.125.125c.167.083.292.167.375.25.083.083.25.187.5.313.25.125.5.27.75.437.25.167.604.354 1.063.563.458.208.937.416 1.437.624.5.209 1.083.459 1.75.75.667.292 1.417.605 2.25.938zm-1 4.75V41c-.083 0-.208-.042-.375-.125-5.667-2.25-8.667-4-9-5.25-.083-.167-.125-.292-.125-.375V34c0-.25.125-.5.375-.75.667-.667 1.208-1.667 1.625-3 0-.083.083-.208.25-.375.083-.083.125-.167.125-.25.25-.083.375-.333.375-.75 0-.083-.042-.208-.125-.375v-.125a3.874 3.874 0 0 1-.25-.75V24.75c-.083-2.333-1.5-3.583-4.25-3.75-2.667.083-4.083 1.333-4.25 3.75v2.875c0 .167-.083.417-.25.75-.083.083-.167.25-.25.5.083.25.25.5.5.75 0 .083.083.208.25.375 0 .083.042.167.125.25.417 1.25.958 2.25 1.625 3 .167.25.25.5.25.75v1.625c-.333 1.25-3.458 3.042-9.375 5.375v2.75h22.75z"/>
</svg>
