<svg xmlns="http://www.w3.org/2000/svg" xmlns:xlink="http://www.w3.org/1999/xlink" width="40" height="41" viewBox="0 0 40 41">
    <defs>
        <path id="a" d="M.062.003h5.052v5.042H.062z"/>
        <path id="c" d="M.183.07H3.04v6.706H.183z"/>
        <path id="e" d="M.16.14h17.846v30.037H.16z"/>
        <path id="g" d="M.155.14h13.997v23.976H.155z"/>
    </defs>
    <g fill="none" fill-rule="evenodd">
        <path fill="#00707D" d="M0 40.18h1.001l.392-.912h3.14l.392.913h1.01l-2.967-6.706L0 40.181zm2.968-4.545l1.138 2.648H1.821l1.147-2.648zM9.459 39.367a1.393 1.393 0 0 0 1.02-.44c.127-.135.228-.292.304-.47a1.46 1.46 0 0 0 .114-.576c0-.206-.038-.398-.114-.576a1.543 1.543 0 0 0-.305-.467 1.425 1.425 0 0 0-1.02-.435c-.2 0-.386.04-.56.118a1.498 1.498 0 0 0-.764.784c-.076.178-.114.37-.114.576 0 .205.038.397.114.575.076.179.18.336.31.472.13.136.282.243.455.321.173.079.36.118.56.118m.255-3.985c.303 0 .59.065.86.194.27.13.505.308.705.533.2.226.359.49.474.791.115.301.173.624.173.967 0 .344-.058.666-.173.967a2.552 2.552 0 0 1-.474.79c-.2.227-.435.405-.705.534-.27.13-.557.194-.86.194-.346 0-.663-.079-.952-.237a2.356 2.356 0 0 1-.742-.64v.706h-.992v-6.706h.992v2.793c.207-.272.454-.487.742-.647.289-.16.606-.24.952-.24M14.475 35.373c.176 0 .33.017.464.05s.249.067.346.103c.11.049.206.1.291.154l-.484.741a.596.596 0 0 0-.155-.108.834.834 0 0 0-.193-.082.955.955 0 0 0-.275-.036c-.22 0-.377.048-.471.145a.444.444 0 0 0-.142.316c0 .163.059.282.178.357.119.075.268.136.448.181.18.045.374.087.585.126.21.04.404.109.584.208.18.1.33.24.448.42.119.181.178.434.178.76a1.362 1.362 0 0 1-.478 1.039 1.749 1.749 0 0 1-.569.316 2.284 2.284 0 0 1-.755.118 2.313 2.313 0 0 1-1.384-.434 5.937 5.937 0 0 0-.255-.181l.492-.741c.255.205.488.34.7.407.213.066.362.099.447.099.315 0 .525-.055.628-.167.103-.112.155-.264.155-.456 0-.187-.06-.324-.178-.412a1.468 1.468 0 0 0-.441-.212 6.043 6.043 0 0 0-.579-.145 2.213 2.213 0 0 1-.577-.198 1.22 1.22 0 0 1-.442-.384c-.118-.166-.178-.4-.178-.7 0-.23.047-.426.142-.588.094-.163.218-.295.373-.398.155-.102.328-.178.519-.226.19-.048.384-.072.578-.072M20.228 36.493h-1.083v3.688h-1.01v-3.688h-.765v-.985h.764v-1.68l1.011-.353v2.033h1.083zM21.64 35.364h.992v.596c.085-.108.206-.208.364-.298.133-.072.31-.14.528-.203.218-.063.491-.095.819-.095v.985c-.164 0-.346.015-.546.045-.2.03-.387.08-.56.15-.173.068-.317.16-.432.275a.574.574 0 0 0-.173.425v2.937h-.993v-4.817z"/>
        <g transform="translate(25.192 35.38)">
            <mask id="b" fill="#fff">
                <use xlink:href="#a"/>
            </mask>
            <path fill="#00707D" d="M2.629 4.033a1.464 1.464 0 0 0 1.056-.438c.133-.136.24-.294.319-.475.078-.18.118-.376.118-.587 0-.205-.04-.399-.118-.583a1.483 1.483 0 0 0-1.375-.917c-.207 0-.4.04-.583.117a1.505 1.505 0 0 0-.801 1.97 1.517 1.517 0 0 0 .801.796c.182.078.376.117.583.117zM5.114.256V4.8h-.992v-.65c-.213.27-.47.488-.774.65a2.05 2.05 0 0 1-.983.244c-.316 0-.613-.066-.892-.199a2.341 2.341 0 0 1-.733-.542 2.619 2.619 0 0 1-.678-1.78A2.62 2.62 0 0 1 .74.744c.21-.23.453-.41.733-.542.279-.133.576-.2.892-.2.352 0 .68.08.983.24.303.16.561.378.774.655V.256h.992z" mask="url(#b)"/>
        </g>
        <path fill="#00707D" d="M35.149 39.774c-.213.12-.402.212-.569.276a2.032 2.032 0 0 1-.514.121 2.334 2.334 0 0 1-1.03-.117 2.45 2.45 0 0 1-1.425-1.288 2.258 2.258 0 0 1-.213-.971c0-.338.064-.658.191-.963.128-.304.309-.567.542-.79.234-.223.511-.395.833-.515.322-.12.674-.17 1.056-.145.297.024.57.1.82.226l-.392.94c-.146-.06-.256-.1-.332-.118a1.373 1.373 0 0 0-.305-.027c-.455 0-.8.115-1.034.343-.233.23-.35.573-.35 1.03 0 .459.121.804.364 1.035.243.233.583.348 1.02.348.085 0 .16-.002.223-.009a.79.79 0 0 0 .186-.04c.061-.021.126-.048.196-.082.07-.033.153-.076.25-.13l.483.876z"/>
        <g transform="translate(36.24 33.405)">
            <mask id="d" fill="#fff">
                <use xlink:href="#c"/>
            </mask>
            <path fill="#00707D" d="M3.041 3.089H1.958v3.687H.948V3.089H.182v-.985h.764V.423L1.957.07v2.034h1.084z" mask="url(#d)"/>
        </g>
        <path fill="#008DAA" d="M10.897 29.13l10.518-6.08h-3.279l-7.53 3.53z"/>
        <path fill="#00707D" d="M21.415 23.05v1.328l-10.518 6.08v-1.6z"/>
        <g transform="translate(3.757 .281)">
            <mask id="f" fill="#fff">
                <use xlink:href="#e"/>
            </mask>
            <path fill="#00707D" d="M.16 30.177h6.98l10.866-18.804L17.664.139z" mask="url(#f)"/>
        </g>
        <g transform="translate(21.214 .281)">
            <mask id="h" fill="#fff">
                <use xlink:href="#g"/>
            </mask>
            <path fill="#008DAA" d="M.155 12.054L.207.139l13.945 23.977H7.153z" mask="url(#h)"/>
        </g>
        <path fill="#00707D" d="M21.42.42v2.423l8.736 12.596z"/>
        <path fill="#00616A" d="M21.433.42v2.423l-8.735 12.596z"/>
        <path fill="#008DAA" d="M19.375 20.662h1.994v-3.428z"/>
        <path fill="#00707D" d="M21.369 17.234v3.428h1.994z"/>
    </g>
</svg>
