<svg xmlns="http://www.w3.org/2000/svg" xmlns:xlink="http://www.w3.org/1999/xlink" width="119" height="42" viewBox="0 0 119 42">
    <defs>
        <path id="a" d="M0 .103h48.744v33.453H0z"/>
        <path id="c" d="M.252.29h109.252v36.022H.252z"/>
    </defs>
    <g fill="none" fill-rule="evenodd">
        <g transform="translate(0 7.744)">
            <mask id="b" fill="#fff">
                <use xlink:href="#a"/>
            </mask>
            <path fill="#C1C6CE" d="M45.394 27.56H15.557c-.73 0-1.44.234-2.022.667l-7.173 5.33.307-2.28c.265-1.97-1.296-3.718-3.32-3.718-1.85 0-3.35-1.47-3.35-3.285V3.389C0 1.575 1.5.103 3.35.103h42.045c1.85 0 3.35 1.472 3.35 3.286v20.885c0 1.814-1.5 3.285-3.35 3.285" mask="url(#b)"/>
        </g>
        <g transform="translate(8.533)">
            <mask id="d" fill="#fff">
                <use xlink:href="#c"/>
            </mask>
            <path fill="#C42A47" d="M105.73 30.588c-2.438 0-4.235 2.301-3.668 4.696l.243 1.028-7.145-5.038a3.747 3.747 0 0 0-2.16-.686H4.025c-2.083 0-3.773-1.707-3.773-3.811V4.099c0-2.104 1.69-3.81 3.773-3.81h101.706c2.083 0 3.773 1.706 3.773 3.81v22.678c0 2.104-1.69 3.81-3.773 3.81" mask="url(#d)"/>
        </g>
        <path fill="#FFF" d="M29.248 17.114l-1.311-5.092h-.132l-1.39 5.092h2.833zm7.512 7.408h-5.134l-1.228-3.495h-5.055l-1.174 3.495h-5.133l6.602-17.424h4.358l6.764 17.424zM44.176 17.559v6.963h-4.79V7.098h4.55l4.578 7.433 1.089 2.37.116-1.903v-7.9h4.764v17.424h-4.845l-4.283-6.866-1.17-2.347zM60.886 19.05c1.901 2.134 5.813 1.9 5.948.012.052-.994-1.687-1.563-3.237-1.763-3.048-.446-5.832-2.233-5.832-5.584 0-3.45 3.373-5.262 6.848-5.262 2.3 0 4.095.387 6.047 2.596l-3.13 2.233c-1.979-1.959-4.949-1.677-5.029.36.054.844 1.042 1.34 2.514 1.638 3.37.57 6.738 1.661 6.525 5.98-.16 3.4-4.012 5.262-7.49 5.262-2.273 0-4.42-.732-6.185-2.841l3.021-2.631zM86.007 7.098h5.236l-6.954 17.424h-4.473L72.863 7.098h5.236l3.025 8.516.873 3.478h.082l.873-3.453zM96.705 18.492c0 1.29 1.555 1.911 3.086 1.911 1.528 0 3.059-.646 3.059-1.911v-6.006c0-1.365-1.583-1.987-3.14-1.987-1.504 0-3.005.694-3.005 1.987v6.006zm-4.806-6.006c0-4.046 3.92-6.033 7.865-6.033 3.945 0 7.89 2.012 7.89 6.033v6.006c0 4.02-3.918 6.03-7.863 6.03-3.945 0-7.892-2.01-7.892-6.03v-6.006z"/>
    </g>
</svg>
