<svg xmlns="http://www.w3.org/2000/svg" width="14" height="18" viewBox="0 0 14 18">
    <g fill="#C42A47" fill-rule="nonzero">
        <path d="M6.996 0C3.14 0 0 3.238 0 7.215a7.317 7.317 0 0 0 .172 1.596c.106.487.263.966.468 1.423.754 1.83 2.412 4.641 6.049 7.653a.487.487 0 0 0 .622 0c3.634-3.012 5.295-5.823 6.049-7.653a7.178 7.178 0 0 0 .516-1.664c.08-.445.124-.902.124-1.355C13.993 3.238 10.853 0 6.996 0zm5.899 8.392c0 .008-.004.016-.004.023-.003.019-.014.076-.033.162v.008a6.12 6.12 0 0 1-.406 1.23c-.003.004-.003.011-.007.015-.684 1.672-2.185 4.223-5.449 7.004-3.264-2.781-4.764-5.332-5.448-7.004-.004-.004-.004-.011-.007-.015a6.528 6.528 0 0 1-.407-1.23v-.008c-.022-.086-.029-.143-.033-.162 0-.007-.003-.015-.003-.026a6.35 6.35 0 0 1-.11-1.178c0-3.415 2.697-6.196 6.008-6.196 3.312 0 6.009 2.781 6.009 6.196 0 .4-.037.797-.11 1.181z"/>
        <path d="M7 2.618c-2.486 0-4.511 2.057-4.511 4.582S4.514 11.782 7 11.782s4.511-2.057 4.511-4.582S9.486 2.618 7 2.618zm0 8.145c-1.936 0-3.508-1.6-3.508-3.563S5.068 3.637 7 3.637s3.508 1.6 3.508 3.563S8.936 10.763 7 10.763z"/>
    </g>
</svg>
