<?xml version="1.0" encoding="UTF-8"?>
<svg width="10px" height="13px" viewBox="0 0 10 13" version="1.1" xmlns="http://www.w3.org/2000/svg" xmlns:xlink="http://www.w3.org/1999/xlink">
    <!-- Generator: Sketch 52.2 (67145) - http://www.bohemiancoding.com/sketch -->
    <title>placeholder</title>
    <desc>Created with Sketch.</desc>
    <g id="Page-1" stroke="none" stroke-width="1" fill="none" fill-rule="evenodd">
        <g id="Zakazchik-Copy-7" transform="translate(-501.000000, -478.000000)" fill-rule="nonzero">
            <g id="Group-16" transform="translate(356.000000, 371.000000)">
                <g id="placeholder" transform="translate(145.000000, 107.000000)">
                    <path d="M4.9973863,0 C2.24255097,0 0,2.33836478 0,5.21090147 C0,5.53794549 0.0287506534,5.86771488 0.088865656,6.18930818 C0.0914793518,6.20838574 0.101934135,6.26561845 0.122843701,6.36373166 C0.198640878,6.71530398 0.311029796,7.06142558 0.457396759,7.39119497 C0.995818087,8.7129979 2.17982227,10.7433962 4.77783586,12.918239 C4.84317825,12.9727463 4.92158913,13 5,13 C5.07841087,13 5.15682175,12.9727463 5.22216414,12.918239 C7.81756404,10.7433962 9.00418191,8.7129979 9.54260324,7.39119497 C9.6889702,7.06142558 9.80135912,6.71802935 9.8771563,6.36373166 C9.89806587,6.26561845 9.90852065,6.20838574 9.91113434,6.18930818 C9.96863565,5.86771488 10,5.53794549 10,5.21090147 C9.99477261,2.33836478 7.75222164,0 4.9973863,0 Z" id="Shape" fill="#A5ABBC"></path>
                    <path d="M5,2 C3.34678748,2 2,3.34678748 2,5 C2,6.65321252 3.34678748,8 5,8 C6.65321252,8 8,6.65321252 8,5 C8,3.34678748 6.65321252,2 5,2 Z" id="Shape" fill="#FFFFFF"></path>
                </g>
            </g>
        </g>
    </g>
</svg>