<?xml version="1.0" encoding="UTF-8"?>
<svg width="4px" height="8px" viewBox="0 0 4 8" version="1.1" xmlns="http://www.w3.org/2000/svg" xmlns:xlink="http://www.w3.org/1999/xlink">
    <!-- Generator: Sketch 52.2 (67145) - http://www.bohemiancoding.com/sketch -->
    <title>S</title>
    <desc>Created with Sketch.</desc>
    <g id="Page-1" stroke="none" stroke-width="1" fill="none" fill-rule="evenodd">
        <g id="Zakazchik-Copy-7" transform="translate(-427.000000, -160.000000)" fill="#C1C6CE">
            <path d="M428.837953,166 C428.667377,166 428.506279,165.93541 428.354655,165.806228 L425.199005,163.141869 C425.066334,163.028834 425,162.883507 425,162.705882 C425,162.528257 425.066334,162.38293 425.199005,162.269896 C425.521205,161.995385 425.862353,161.995385 426.222459,162.269896 L428.866382,164.522491 L431.749112,162.16955 C431.900735,162.056516 432.071309,162 432.260839,162 C432.450368,162 432.620942,162.056516 432.772566,162.16955 C432.924189,162.282584 433,162.419838 433,162.581315 C433,162.742792 432.924189,162.888119 432.772566,163.017301 L429.378109,165.806228 C429.18858,165.93541 429.00853,166 428.837953,166 Z" id="S" transform="translate(429.000000, 164.000000) rotate(-90.000000) translate(-429.000000, -164.000000) "></path>
        </g>
    </g>
</svg>