<?xml version="1.0" encoding="UTF-8"?>
<svg width="16px" height="16px" viewBox="0 0 16 16" version="1.1" xmlns="http://www.w3.org/2000/svg" xmlns:xlink="http://www.w3.org/1999/xlink">
    <!-- Generator: Sketch 52.2 (67145) - http://www.bohemiancoding.com/sketch -->
    <title>Shape</title>
    <desc>Created with Sketch.</desc>
    <g id="Page-1" stroke="none" stroke-width="1" fill="none" fill-rule="evenodd">
        <g id="Zakazchik-Copy-7" transform="translate(-1216.000000, -304.000000)" fill="#C1C6CE" fill-rule="nonzero">
            <path d="M1221.94286,304 C1225.22501,304 1227.88571,306.660708 1227.88571,309.942857 C1227.88571,311.414857 1227.34629,312.768 1226.45943,313.810286 L1226.70629,314.057143 L1227.42857,314.057143 L1232,318.628571 L1230.62857,320 L1226.05714,315.428571 L1226.05714,314.706286 L1225.81029,314.459429 C1224.768,315.346286 1223.41486,315.885714 1221.94286,315.885714 C1218.66071,315.885714 1216,313.225007 1216,309.942857 C1216,306.660708 1218.66071,304 1221.94286,304 Z M1221.94286,305.828571 C1219.65714,305.828571 1217.82857,307.657143 1217.82857,309.942857 C1217.82857,312.228571 1219.65714,314.057143 1221.94286,314.057143 C1224.22857,314.057143 1226.05714,312.228571 1226.05714,309.942857 C1226.05714,307.657143 1224.22857,305.828571 1221.94286,305.828571 Z" id="Shape"></path>
        </g>
    </g>
</svg>